<?xml version="1.0" encoding="UTF-8"?>
<svg version="1.1" xmlns="http://www.w3.org/2000/svg" width="512" height="512">
<path d="M0 0 C0.98476318 0.55292725 1.96952637 1.10585449 2.98413086 1.67553711 C4.0335083 2.27245361 5.08288574 2.86937012 6.1640625 3.484375 C7.2682251 4.10771729 8.3723877 4.73105957 9.51000977 5.37329102 C18.95557555 10.72208206 28.33480387 16.18262692 37.69921875 21.671875 C44.0047676 25.36650864 50.33206884 29.02279297 56.6640625 32.671875 C57.74131592 33.29296143 58.81856934 33.91404785 59.9284668 34.55395508 C65.429916 37.72488655 70.93320131 40.89261167 76.4375 44.05859375 C87.05304214 50.16739767 97.65903018 56.2928175 108.2265625 62.484375 C109.15049805 63.02143066 110.07443359 63.55848633 111.02636719 64.11181641 C111.87489258 64.61116699 112.72341797 65.11051758 113.59765625 65.625 C114.33814209 66.05844727 115.07862793 66.49189453 115.84155273 66.93847656 C117.83191111 68.26288703 119.26948021 69.38693716 120.7890625 71.234375 C121.17217255 73.34149075 121.17217255 73.34149075 121.18347168 75.82017517 C121.19482147 76.76090378 121.20617126 77.70163239 121.21786499 78.67086792 C121.21493439 79.70108063 121.21200378 80.73129333 121.20898438 81.79272461 C121.21745392 82.87913742 121.22592346 83.96555023 121.23464966 85.08488464 C121.25809943 88.68561423 121.25903989 92.2859185 121.2578125 95.88671875 C121.2649092 98.38391798 121.27260746 100.88111556 121.28088379 103.37831116 C121.29434692 108.61641807 121.29606964 113.85441493 121.29003906 119.0925293 C121.28339763 125.14632934 121.30626466 131.19952018 121.34335279 137.25319666 C121.37774297 143.07794712 121.3843872 148.90245761 121.38026428 154.72729683 C121.38196084 157.20528541 121.39165445 159.68328164 121.40940857 162.1612072 C121.43148477 165.6235099 121.42195258 169.08433424 121.40429688 172.54663086 C121.41756012 173.57481934 121.43082336 174.60300781 121.44448853 175.66235352 C121.36217318 182.59159695 121.36217318 182.59159695 118.43811035 185.87110901 C115.17789784 187.54889555 113.40925698 187.83774075 109.7890625 187.234375 C107.14277649 185.75933838 107.14277649 185.75933838 104.7890625 183.234375 C104.03906539 180.27475732 104.0986348 177.37540323 104.12963867 174.33496094 C104.11915497 173.43704834 104.10867126 172.53913574 104.09786987 171.61401367 C104.06908766 168.64857564 104.07541513 165.68430287 104.08203125 162.71875 C104.06891815 160.66178929 104.05361512 158.60484146 104.03620911 156.5479126 C103.99630102 151.13587677 103.98616489 145.72417734 103.98217773 140.31201172 C103.97285729 134.78863279 103.93545055 129.26545242 103.90039062 123.7421875 C103.83575554 112.90625932 103.80256398 102.07047907 103.7890625 91.234375 C103.06952393 91.64949341 102.34998535 92.06461182 101.60864258 92.49230957 C73.44885254 108.73834229 73.44885254 108.73834229 45.2890625 124.984375 C44.21462891 125.60425293 43.14019531 126.22413086 42.03320312 126.86279297 C39.88611114 128.10147502 37.73897636 129.3400829 35.59179688 130.57861328 C30.49317441 133.5197085 25.39500954 136.46158913 20.29833984 139.40606689 C17.87858585 140.80396101 15.45858987 142.20143589 13.03857422 143.59887695 C11.32105198 144.59089824 9.60388198 145.58352929 7.88671875 146.57617188 C6.33791016 147.47045898 6.33791016 147.47045898 4.7578125 148.3828125 C3.38786133 149.17437744 3.38786133 149.17437744 1.99023438 149.98193359 C0.60917559 150.76774011 -0.78972245 151.52376748 -2.2109375 152.234375 C-2.5409375 192.824375 -2.8709375 233.414375 -3.2109375 275.234375 C14.25470225 265.39554824 14.25470225 265.39554824 31.6015625 255.359375 C43.18965629 248.57364917 54.81784074 241.85895781 66.45410156 235.15625 C71.02357241 232.52295026 75.59084211 229.88584871 80.15771484 227.24804688 C82.38354271 225.96365581 84.6104049 224.68105527 86.83837891 223.40039062 C91.35281561 220.80481556 95.86137638 218.20565959 100.3203125 215.515625 C100.96516602 215.13140381 101.61001953 214.74718262 102.27441406 214.35131836 C103.87342764 213.39584802 105.4645403 212.42718582 107.0546875 211.45703125 C110.23409764 210.03538071 112.3416744 209.84761816 115.7890625 210.234375 C118.65220998 212.22612977 120.385243 213.72840154 121.30859375 217.171875 C121.61925253 220.98647584 121.61925253 220.98647584 120.7890625 223.234375 C115.48783256 228.63701978 108.58906362 231.94234565 102.0390625 235.609375 C100.7862184 236.31691438 99.53378363 237.02517899 98.28173828 237.73413086 C96.35266765 238.82634222 94.42337199 239.91813015 92.49282837 241.00773621 C86.19317401 244.56367864 79.9261119 248.17516017 73.6640625 251.796875 C71.51564688 253.0377983 69.36720937 254.27868369 67.21875 255.51953125 C66.15881836 256.13199707 65.09888672 256.74446289 64.00683594 257.37548828 C59.68586065 259.87168751 55.36338792 262.36528663 51.04077148 264.85864258 C48.88128842 266.10432982 46.72194485 267.35025894 44.56274414 268.59643555 C39.01159358 271.80010341 33.45853964 275.00040183 27.90234375 278.1953125 C26.77159424 278.84612793 25.64084473 279.49694336 24.47583008 280.16748047 C22.25368751 281.44632585 20.03088472 282.72402482 17.80737305 284.00048828 C13.19177583 286.65774897 8.59308012 289.32768417 4.0703125 292.140625 C3.38541748 292.5648877 2.70052246 292.98915039 1.99487305 293.42626953 C0.26934182 294.50453186 -1.44599246 295.59906883 -3.16015625 296.6953125 C-6.88733728 298.57560613 -8.99877647 299.34716201 -13.2109375 299.234375 C-17.0885664 297.57952832 -20.61382584 295.42194862 -24.2109375 293.234375 C-25.96123169 292.24876618 -27.71509444 291.26946482 -29.47265625 290.296875 C-31.28201522 289.27739859 -33.09058054 288.25651258 -34.8984375 287.234375 C-35.88755127 286.67532471 -36.87666504 286.11627441 -37.89575195 285.5402832 C-45.9289708 280.9868802 -53.90835951 276.34513184 -61.87573242 271.67773438 C-69.62449886 267.14406075 -77.41068972 262.67855629 -85.2109375 258.234375 C-97.02335162 251.50223129 -108.78625089 244.68864657 -120.51464844 237.81103516 C-123.13029357 236.28153169 -125.75163057 234.76230206 -128.375 233.24609375 C-129.92448856 232.34637034 -131.47396832 231.44663179 -133.0234375 230.546875 C-134.06407349 229.94963623 -134.06407349 229.94963623 -135.12573242 229.34033203 C-141.33129209 225.72272702 -141.33129209 225.72272702 -143.2109375 223.234375 C-143.59684086 220.50535774 -143.59684086 220.50535774 -143.61207581 217.13674927 C-143.63126823 215.22297485 -143.63126823 215.22297485 -143.65084839 213.27053833 C-143.64979982 211.85369845 -143.6484152 210.43685879 -143.64672852 209.02001953 C-143.65570356 207.53016398 -143.66591122 206.04031542 -143.67726135 204.55047607 C-143.70379256 200.50082318 -143.71079613 196.45136037 -143.71270871 192.40162897 C-143.71555584 189.02188283 -143.72659061 185.64218108 -143.737225 182.26245201 C-143.76166319 174.28871471 -143.76897733 166.31507904 -143.7668457 158.34130859 C-143.76504336 150.11421575 -143.79669659 141.88771306 -143.84407669 133.66076958 C-143.88329752 126.59909 -143.89939765 119.53760334 -143.89747947 112.47581565 C-143.89671428 108.25736946 -143.90527908 104.03944754 -143.93701363 99.82110977 C-143.96604925 95.85309421 -143.96630245 91.88610429 -143.94446373 87.91805267 C-143.94132494 86.4623833 -143.94842318 85.00665019 -143.9665451 83.55109024 C-144.09444374 72.56603891 -144.09444374 72.56603891 -141.92626381 69.29805183 C-140.34281921 67.94219971 -140.34281921 67.94219971 -137.2109375 66.234375 C-136.27411133 65.64092285 -135.33728516 65.0474707 -134.37207031 64.43603516 C-132.90785645 63.61304932 -132.90785645 63.61304932 -131.4140625 62.7734375 C-130.30401855 62.14493896 -129.19397461 61.51644043 -128.05029297 60.86889648 C-126.85384329 60.19905216 -125.65739141 59.52921177 -124.4609375 58.859375 C-123.2080934 58.15183562 -121.95565863 57.44357101 -120.70361328 56.73461914 C-118.77454265 55.64240778 -116.84524699 54.55061985 -114.91470337 53.46101379 C-108.61504956 49.90507166 -102.34795402 46.29364592 -96.0859375 42.671875 C-93.94013703 41.43223477 -91.79430367 40.19265149 -89.6484375 38.953125 C-88.05902344 38.03466797 -88.05902344 38.03466797 -86.4375 37.09765625 C-83.17569743 35.2140245 -79.91231906 33.33315179 -76.6484375 31.453125 C-67.00560372 25.89750037 -57.36826054 20.33402309 -47.76513672 14.70996094 C-39.53003863 9.88870927 -31.28387562 5.09027733 -22.9609375 0.421875 C-21.86168945 -0.20037964 -21.86168945 -0.20037964 -20.74023438 -0.83520508 C-12.31127032 -5.52366538 -8.38956693 -4.73273684 0 0 Z M-16.69921875 16.65625 C-18.08645142 17.4447937 -18.08645142 17.4447937 -19.50170898 18.24926758 C-20.9974646 19.10814575 -20.9974646 19.10814575 -22.5234375 19.984375 C-23.54058838 20.56405029 -24.55773926 21.14372559 -25.60571289 21.7409668 C-28.8097428 23.56812779 -32.01038998 25.40112235 -35.2109375 27.234375 C-37.27581446 28.41315851 -39.34091211 29.59155552 -41.40625 30.76953125 C-46.34369812 33.58669631 -51.27839785 36.40862544 -56.2109375 39.234375 C-52.90555173 41.99184499 -49.62151293 44.26332973 -45.8515625 46.3359375 C-44.31544312 47.1865979 -44.31544312 47.1865979 -42.74829102 48.05444336 C-41.66346436 48.6500708 -40.5786377 49.24569824 -39.4609375 49.859375 C-32.18779457 53.89145774 -24.92343038 57.92450649 -17.7734375 62.171875 C-10.80338181 66.30779127 -3.79593548 70.37560811 3.2265625 74.421875 C4.8667334 75.36691895 4.8667334 75.36691895 6.54003906 76.33105469 C8.79677896 77.63102611 11.05361641 78.9308282 13.31054688 80.23046875 C16.87225827 82.28183736 20.43238653 84.33594339 23.9921875 86.390625 C24.58060928 86.73023758 25.16903107 87.06985016 25.77528381 87.41975403 C28.60015334 89.05018362 31.42496693 90.68071008 34.24975586 92.3112793 C36.2354077 93.45705939 38.22404493 94.59768902 40.21630859 95.73193359 C41.79114688 96.65161046 43.3472607 97.6056759 44.86572266 98.61572266 C46.81111629 99.95128284 46.81111629 99.95128284 49.7890625 101.234375 C53.93900441 100.18389997 57.39867221 98.47211037 61.0625 96.29296875 C62.04541016 95.71305176 63.02832031 95.13313477 64.04101562 94.53564453 C65.07162109 93.92060059 66.10222656 93.30555664 67.1640625 92.671875 C69.30670946 91.40656568 71.44994089 90.14224555 73.59375 88.87890625 C74.64272461 88.25967285 75.69169922 87.64043945 76.77246094 87.00244141 C80.91774744 84.5728392 85.09550229 82.20443879 89.2890625 79.859375 C89.95856934 79.48482178 90.62807617 79.11026855 91.31787109 78.72436523 C92.80732769 77.89268184 94.29802314 77.06321747 95.7890625 76.234375 C92.48367673 73.47690501 89.19963793 71.20542027 85.4296875 69.1328125 C84.40560791 68.56570557 83.38152832 67.99859863 82.32641602 67.41430664 C81.24158936 66.8186792 80.1567627 66.22305176 79.0390625 65.609375 C71.76591957 61.57729226 64.50155538 57.54424351 57.3515625 53.296875 C50.38150681 49.16095873 43.37406048 45.09314189 36.3515625 41.046875 C34.7113916 40.10183105 34.7113916 40.10183105 33.03808594 39.13769531 C30.78134604 37.83772389 28.52450859 36.5379218 26.26757812 35.23828125 C22.70586673 33.18691264 19.14573847 31.13280661 15.5859375 29.078125 C14.99751572 28.73851242 14.40909393 28.39889984 13.80284119 28.04899597 C10.97797166 26.41856638 8.15315807 24.78803992 5.32836914 23.1574707 C3.34550463 22.01329898 1.36191965 20.87037445 -0.62255859 19.72900391 C-2.22889499 18.80144388 -3.83154209 17.86742426 -5.42822266 16.92333984 C-10.44731267 13.9723786 -11.70605958 13.80301619 -16.69921875 16.65625 Z M-82.3359375 54.296875 C-83.83630805 55.20336652 -85.33768218 56.10819824 -86.83984375 57.01171875 C-87.67660645 57.51687012 -88.51336914 58.02202148 -89.37548828 58.54248047 C-94.3799084 61.52858615 -99.43529204 64.42689433 -104.48699951 67.33200073 C-106.26741731 68.35591281 -108.04714489 69.38101443 -109.82666016 70.40649414 C-112.62098929 72.01653631 -115.41576181 73.62580313 -118.2109375 75.234375 C-115.28118528 77.5218846 -112.27093385 79.43416292 -109.046875 81.28125 C-108.02078125 81.87099609 -106.9946875 82.46074219 -105.9375 83.06835938 C-104.83148438 83.70064453 -103.72546875 84.33292969 -102.5859375 84.984375 C-101.41911128 85.65401893 -100.25244741 86.32394584 -99.0859375 86.99414062 C-96.66306238 88.38586269 -94.23949404 89.77636604 -91.81542969 91.16601562 C-86.27403739 94.34408521 -80.74300164 97.54010581 -75.2109375 100.734375 C-68.6887199 104.4982135 -62.1657997 108.26082132 -55.640625 112.01953125 C-54.01386841 112.95744507 -54.01386841 112.95744507 -52.35424805 113.91430664 C-50.19294444 115.15923172 -48.0303656 116.40194575 -45.86645508 117.64233398 C-40.34181378 120.8162789 -34.85767028 124.04166472 -29.41796875 127.359375 C-28.32307129 128.01993896 -27.22817383 128.68050293 -26.10009766 129.36108398 C-24.01112693 130.62411959 -21.93084778 131.9016769 -19.86083984 133.19555664 C-18.92836426 133.75621826 -17.99588867 134.31687988 -17.03515625 134.89453125 C-16.22135498 135.39605713 -15.40755371 135.89758301 -14.5690918 136.41430664 C-12.18990515 137.49490848 -12.18990515 137.49490848 -9.63769531 136.50097656 C-8.83686523 136.08299805 -8.03603516 135.66501953 -7.2109375 135.234375 C-6.59355713 134.92459717 -5.97617676 134.61481934 -5.34008789 134.2956543 C-4.45824829 133.80705933 -4.45824829 133.80705933 -3.55859375 133.30859375 C-2.53258057 132.74108398 -2.53258057 132.74108398 -1.48583984 132.16210938 C-0.75574707 131.75283203 -0.0256543 131.34355469 0.7265625 130.921875 C1.49274902 130.49326172 2.25893555 130.06464844 3.04833984 129.62304688 C9.70117058 125.88058075 16.31902886 122.07767846 22.9140625 118.234375 C23.89238037 117.67065186 24.87069824 117.10692871 25.87866211 116.52612305 C26.77979736 115.99672119 27.68093262 115.46731934 28.609375 114.921875 C29.41648926 114.45136719 30.22360352 113.98085937 31.05517578 113.49609375 C31.6273584 113.07972656 32.19954102 112.66335937 32.7890625 112.234375 C32.7890625 111.574375 32.7890625 110.914375 32.7890625 110.234375 C32.15742188 109.88358887 31.52578125 109.53280273 30.875 109.17138672 C18.18334188 102.11462364 5.55169337 94.97549659 -6.97460938 87.62841797 C-14.68889043 83.10837057 -22.44227012 78.65992248 -30.2109375 74.234375 C-39.42308339 68.98449035 -48.61367119 63.70024909 -57.7734375 58.359375 C-58.78470703 57.77027344 -59.79597656 57.18117188 -60.83789062 56.57421875 C-64.3482665 54.52304839 -67.8272813 52.4901458 -71.2109375 50.234375 C-75.96697407 50.234375 -78.43628271 51.88255932 -82.3359375 54.296875 Z M-127.2109375 90.234375 C-127.2109375 131.154375 -127.2109375 172.074375 -127.2109375 214.234375 C-114.8359375 221.164375 -114.8359375 221.164375 -102.2109375 228.234375 C-89.06237291 235.8756874 -89.06237291 235.8756874 -84.30078125 238.671875 C-77.995233 242.36650828 -71.66797249 246.02286547 -65.3359375 249.671875 C-63.73854736 250.59262817 -63.73854736 250.59262817 -62.10888672 251.53198242 C-58.80979342 253.43316745 -55.51036876 255.33377656 -52.2109375 257.234375 C-48.0146244 259.65221162 -43.81873466 262.07078162 -39.62322998 264.49002075 C-37.93995528 265.46043973 -36.25635863 266.43030019 -34.57275391 267.40014648 C-33.54972168 267.98997314 -32.52668945 268.5797998 -31.47265625 269.1875 C-30.57506592 269.70473633 -29.67747559 270.22197266 -28.75268555 270.75488281 C-26.987017 271.78263725 -25.23939445 272.84177582 -23.50708008 273.92480469 C-21.36194344 275.39951587 -21.36194344 275.39951587 -19.2109375 275.234375 C-18.64828893 259.44056327 -18.2261622 243.649486 -17.96744537 227.84811974 C-17.84407072 220.50925684 -17.67622358 213.17664333 -17.40039062 205.84179688 C-17.15983909 199.44204461 -17.00606106 193.04681425 -16.95281363 186.64266741 C-16.92169843 183.25397288 -16.84974621 179.87819928 -16.67341614 176.49369431 C-15.97567552 164.06247898 -15.97567552 164.06247898 -19.2109375 152.234375 C-25.04467545 146.05049335 -32.68150645 142.64906979 -40.42277908 139.42480659 C-43.93556824 137.9249868 -47.07512533 136.10790592 -50.328125 134.11328125 C-52.24704402 133.00720192 -54.16630622 131.90171773 -56.0859375 130.796875 C-58.27084288 129.53777698 -60.45573842 128.27866189 -62.640625 127.01953125 C-63.72569336 126.39449707 -64.81076172 125.76946289 -65.92871094 125.12548828 C-70.27691072 122.62019555 -74.62365334 120.11238179 -78.97021484 117.60424805 C-81.11880481 116.3645275 -83.26756595 115.12510356 -85.41650391 113.88598633 C-90.47960722 110.96626598 -95.54136362 108.04428132 -100.59851074 105.11425781 C-102.97905923 103.73519469 -105.36035056 102.35741715 -107.74169922 100.97973633 C-109.415764 100.01052842 -111.08875662 99.03946935 -112.76171875 98.06835938 C-113.78136719 97.47861328 -114.80101562 96.88886719 -115.8515625 96.28125 C-116.74391602 95.76401367 -117.63626953 95.24677734 -118.55566406 94.71386719 C-121.39346486 93.13267255 -124.30531676 91.68718537 -127.2109375 90.234375 Z " fill="#fff" transform="translate(175.2109375,108.765625)"/>
<path d="M0 0 C5.26503574 4.18639759 9.63856395 10.6580604 10.75 17.375 C11.50296658 28.5584053 11.14845822 37.95009486 4.0625 47.1875 C-1.53243535 53.19320276 -9.65236893 56.93567081 -17.765625 57.7109375 C-28.39114671 57.82208312 -36.76622326 56.51938673 -44.71484375 49.078125 C-49.15380015 44.15348126 -51.24390665 39.91739219 -52.25 33.375 C-56.31304554 33.48513876 -60.37518667 33.61570865 -64.4375 33.75 C-66.16323242 33.79640625 -66.16323242 33.79640625 -67.92382812 33.84375 C-69.03564453 33.88242188 -70.14746094 33.92109375 -71.29296875 33.9609375 C-72.31414795 33.9923584 -73.33532715 34.0237793 -74.38745117 34.05615234 C-77.44569305 34.39679745 -79.57287455 34.8459601 -82.25 36.375 C-84.29049813 40.30418159 -84.5078351 43.66495799 -84.5284729 48.05049133 C-84.5342653 48.70813183 -84.5400577 49.36577234 -84.54602563 50.04334134 C-84.56298183 52.23898676 -84.56589829 54.43442143 -84.56884766 56.63012695 C-84.57814887 58.20720431 -84.58831783 59.78427676 -84.59928894 61.36134338 C-84.62658123 65.63776 -84.64173607 69.91414369 -84.65471697 74.19062448 C-84.67035086 78.66164185 -84.69714027 83.13259203 -84.7227478 87.6035614 C-84.76953099 96.06778579 -84.80627734 104.53202283 -84.83942068 112.99631041 C-84.8776453 122.63352758 -84.92705458 132.27067725 -84.97740483 141.90783751 C-85.08071788 161.73018137 -85.16850386 181.55255361 -85.25 201.375 C-74.36 201.375 -63.47 201.375 -52.25 201.375 C-51.755 198.405 -51.755 198.405 -51.25 195.375 C-47.03443365 187.14460856 -40.97635777 181.69757868 -32.45703125 178.2421875 C-23.90403302 175.92944011 -13.44122756 176.19231965 -5.42578125 180.05859375 C2.75456704 185.00792476 7.4182633 191.14063741 10.359375 200.265625 C12.27817811 210.6271618 11.01046442 220.77523549 5.27734375 229.65625 C0.40480364 235.83043794 -5.89582507 238.92360836 -13.25 241.375 C-22.25672301 241.99231472 -30.3721663 242.34359221 -38.25 237.375 C-38.87132812 237.024375 -39.49265625 236.67375 -40.1328125 236.3125 C-45.1866257 233.16207099 -48.64302786 228.70267126 -51.25 223.375 C-51.58 221.395 -51.91 219.415 -52.25 217.375 C-63.14 217.375 -74.03 217.375 -85.25 217.375 C-85.16458711 238.15012207 -85.07101393 258.9251547 -84.96247292 279.70016766 C-84.91233889 289.3462382 -84.86589603 298.99230021 -84.828125 308.63842773 C-84.79519664 317.04542637 -84.75536071 325.45235895 -84.70720994 333.8592847 C-84.68195338 338.3111876 -84.66016957 342.76304673 -84.64665604 347.21500206 C-84.63382808 351.40515589 -84.61176568 355.59515953 -84.58261681 359.78523064 C-84.57354679 361.32310615 -84.56785214 362.86100584 -84.56578636 364.39890671 C-84.56245972 366.49927784 -84.5469719 368.59922422 -84.5284729 370.69950867 C-84.52294214 371.87479472 -84.51741138 373.05008078 -84.51171303 374.26098156 C-84.24808985 377.39772813 -83.69670283 379.58923016 -82.25 382.375 C-78.67223716 384.41843884 -75.36111379 384.66388881 -71.29296875 384.7890625 C-70.18115234 384.82773437 -69.06933594 384.86640625 -67.92382812 384.90625 C-66.77333984 384.9371875 -65.62285156 384.968125 -64.4375 385 C-63.26767578 385.03867187 -62.09785156 385.07734375 -60.89257812 385.1171875 C-58.01187436 385.2112513 -55.13117346 385.29689877 -52.25 385.375 C-52.10828369 384.43333984 -51.96656738 383.49167969 -51.82055664 382.52148438 C-50.65166687 376.07533486 -46.43142986 371.00924024 -41.375 367 C-32.09327436 360.73091702 -22.68235452 359.99651495 -11.59765625 361.80859375 C-2.23456952 364.457903 3.9674842 370.77250686 8.65625 379.04296875 C12.13491288 386.45997497 11.85346742 396.48821573 10.06640625 404.40234375 C6.9194265 412.87699047 2.0142421 418.127857 -5.90625 422.33203125 C-15.03114236 426.39260835 -24.64682021 426.91265628 -34.1875 423.75 C-42.00462256 420.4670381 -47.77131313 415.1948581 -51.25 407.375 C-51.60621555 405.3789485 -51.94181898 403.37902983 -52.25 401.375 C-53.17748047 401.39594727 -54.10496094 401.41689453 -55.06054688 401.43847656 C-58.53460829 401.50705499 -62.00794011 401.55699327 -65.48242188 401.59472656 C-66.9799339 401.61471919 -68.47736908 401.64192299 -69.97460938 401.67675781 C-79.52106168 401.89314406 -86.91515731 402.04995797 -94.4921875 395.41015625 C-95.03101563 394.75917969 -95.56984375 394.10820312 -96.125 393.4375 C-96.67929687 392.78910156 -97.23359375 392.14070313 -97.8046875 391.47265625 C-100.97168353 386.87623229 -101.49881887 382.963955 -101.49050903 377.4337616 C-101.49221788 376.74753623 -101.49392673 376.06131086 -101.49568737 375.35429078 C-101.49897367 373.06185157 -101.48799295 370.76970703 -101.47705078 368.47729492 C-101.47648648 366.83125821 -101.4768036 365.18522099 -101.47793579 363.53918457 C-101.47850957 359.07470285 -101.46675116 354.61032862 -101.45278788 350.14587188 C-101.44028473 345.47870793 -101.43911034 340.81154151 -101.43673706 336.1443634 C-101.43052107 327.30822231 -101.41410863 318.47213072 -101.39403808 309.63601142 C-101.37168279 299.57563433 -101.36068658 289.51525488 -101.35064721 279.45485914 C-101.32974252 258.76154514 -101.29456421 238.06827569 -101.25 217.375 C-102.56194336 217.39594727 -103.87388672 217.41689453 -105.22558594 217.43847656 C-110.09331344 217.5108797 -114.96099335 217.55680113 -119.82910156 217.59472656 C-121.93595382 217.61484126 -124.04275025 217.64213667 -126.14941406 217.67675781 C-129.17787447 217.72528168 -132.20559678 217.74797016 -135.234375 217.765625 C-136.64707672 217.79659271 -136.64707672 217.79659271 -138.08831787 217.82818604 C-144.62832075 217.83042981 -144.62832075 217.83042981 -147.84277344 215.47558594 C-149.3595314 213.21150101 -149.79219507 212.07548437 -149.75 209.375 C-149.76546875 208.385 -149.76546875 208.385 -149.78125 207.375 C-148.95735266 204.27326882 -147.85860113 203.28600912 -145.25 201.375 C-141.91071699 200.80903657 -138.61266243 200.91031985 -135.234375 200.984375 C-134.26340881 200.99003479 -133.29244263 200.99569458 -132.29205322 201.00152588 C-129.19419831 201.02389689 -126.09750467 201.07409527 -123 201.125 C-120.89845422 201.14506403 -118.79689028 201.16331497 -116.6953125 201.1796875 C-111.5464283 201.2237642 -106.39841097 201.29279742 -101.25 201.375 C-101.25368717 200.52170105 -101.25737434 199.6684021 -101.26117325 198.78924561 C-101.34955609 178.01527204 -101.41572513 157.24133094 -101.45724869 136.46720886 C-101.47786352 126.4209416 -101.50596354 116.37479993 -101.55175781 106.32861328 C-101.59165855 97.57114515 -101.61744066 88.81376798 -101.62635398 80.05621147 C-101.63156324 75.42021293 -101.64378444 70.78447462 -101.67292023 66.14855957 C-101.70014049 61.78191062 -101.70843168 57.41562825 -101.70243073 53.04890251 C-101.70352801 51.44936059 -101.71144258 49.84980596 -101.7268219 48.2503376 C-101.81292321 38.83089726 -101.77659238 31.54053484 -95.28515625 24.1328125 C-94.63417969 23.59398438 -93.98320312 23.05515625 -93.3125 22.5 C-92.66410156 21.94570312 -92.01570313 21.39140625 -91.34765625 20.8203125 C-86.56259568 17.52334339 -82.51990083 17.13380557 -76.76171875 17.1796875 C-76.05852005 17.1825174 -75.35532135 17.18534729 -74.6308136 17.18826294 C-72.39953108 17.19939849 -70.16865983 17.22449003 -67.9375 17.25 C-66.41862562 17.2600384 -64.8997449 17.26916274 -63.38085938 17.27734375 C-59.67044079 17.29931587 -55.96026058 17.33379953 -52.25 17.375 C-52.10828369 16.43333984 -51.96656738 15.49167969 -51.82055664 14.52148438 C-50.65166687 8.07533486 -46.43142986 3.00924024 -41.375 -1 C-28.26792652 -9.8528076 -12.9654516 -8.59480031 0 0 Z M-34.625 17 C-36.82907893 21.57770239 -37.0471639 25.38052411 -36.25 30.375 C-33.92031069 35.21358548 -31.08858548 38.04531069 -26.25 40.375 C-21.25552411 41.1721639 -17.45270239 40.95407893 -12.875 38.75 C-9.29092287 35.50726355 -6.65464759 32.91024104 -5.8671875 27.9765625 C-5.61116081 22.29277006 -6.31373068 18.72561345 -10.25 14.375 C-14.60061345 10.43873068 -18.16777006 9.73616081 -23.8515625 9.9921875 C-28.78524104 10.77964759 -31.38226355 13.41592287 -34.625 17 Z M-34.625 201 C-36.82907893 205.57770239 -37.0471639 209.38052411 -36.25 214.375 C-33.92031069 219.21358548 -31.08858548 222.04531069 -26.25 224.375 C-21.25552411 225.1721639 -17.45270239 224.95407893 -12.875 222.75 C-9.29092287 219.50726355 -6.65464759 216.91024104 -5.8671875 211.9765625 C-5.61116081 206.29277006 -6.31373068 202.72561345 -10.25 198.375 C-14.60061345 194.43873068 -18.16777006 193.73616081 -23.8515625 193.9921875 C-28.78524104 194.77964759 -31.38226355 197.41592287 -34.625 201 Z M-34.625 385 C-36.82907893 389.57770239 -37.0471639 393.38052411 -36.25 398.375 C-33.92031069 403.21358548 -31.08858548 406.04531069 -26.25 408.375 C-21.25552411 409.1721639 -17.45270239 408.95407893 -12.875 406.75 C-9.29092287 403.50726355 -6.65464759 400.91024104 -5.8671875 395.9765625 C-5.61116081 390.29277006 -6.31373068 386.72561345 -10.25 382.375 C-14.60061345 378.43873068 -18.16777006 377.73616081 -23.8515625 377.9921875 C-28.78524104 378.77964759 -31.38226355 381.41592287 -34.625 385 Z " fill="#fff" transform="translate(469.25,46.625)"/>
</svg>
